<svg width="32" height="32" viewBox="0 0 32 32" fill="none" xmlns="http://www.w3.org/2000/svg">
<path d="M6.66666 9.33325H25.0533C25.4259 9.33327 25.7943 9.41135 26.1348 9.56246C26.4754 9.71357 26.7805 9.93436 27.0305 10.2106C27.2804 10.4868 27.4698 10.8124 27.5862 11.1663C27.7027 11.5202 27.7437 11.8945 27.7067 12.2653L26.9067 20.2653C26.8409 20.9233 26.5329 21.5333 26.0426 21.9771C25.5523 22.4208 24.9146 22.6666 24.2533 22.6666H11.52C10.9033 22.6668 10.3056 22.4533 9.82858 22.0624C9.35161 21.6715 9.02486 21.1273 8.90399 20.5226L6.66666 9.33325Z" stroke="#1D1D1D" stroke-width="2" stroke-linejoin="round"/>
<path d="M10.6667 28H13.3333M21.3333 28H24M6.66666 9.33333L5.58666 5.00933C5.51443 4.721 5.34793 4.46508 5.1136 4.28221C4.87927 4.09934 4.59056 4.00001 4.29332 4H2.66666L6.66666 9.33333Z" stroke="#1D1D1D" stroke-width="2" stroke-linecap="round" stroke-linejoin="round"/>
<circle cx="27" cy="9" r="4.5" fill="#FF912B" stroke="white"/>
</svg>
