<svg width="22" height="22" viewBox="0 0 22 22" fill="none" xmlns="http://www.w3.org/2000/svg">
<path d="M10.4269 1.633C10.7469 0.789 11.9579 0.789 12.2789 1.633L14.3489 7.367C14.4211 7.55379 14.5483 7.71428 14.7136 7.82729C14.8789 7.94031 15.0747 8.00053 15.2749 8H20.3619C21.3019 8 21.7119 9.17 20.9729 9.743L17.3529 13C17.1908 13.1247 17.0723 13.2975 17.0144 13.4937C16.9566 13.6898 16.9623 13.8993 17.0309 14.092L18.3529 19.695C18.6749 20.595 17.6329 21.368 16.8449 20.814L11.9279 17.694C11.7595 17.5757 11.5587 17.5122 11.3529 17.5122C11.1471 17.5122 10.9463 17.5757 10.7779 17.694L5.86092 20.814C5.07392 21.368 4.03092 20.594 4.35292 19.695L5.67492 14.092C5.7435 13.8993 5.74928 13.6898 5.69143 13.4937C5.63358 13.2975 5.51508 13.1247 5.35292 13L1.73292 9.743C0.992921 9.17 1.40492 8 2.34292 8H7.42992C7.63021 8.00067 7.82599 7.9405 7.99134 7.82747C8.15669 7.71444 8.28382 7.55387 8.35592 7.367L10.4259 1.633H10.4269Z" fill="#FFD057" stroke="#FFD057" stroke-linecap="round" stroke-linejoin="round"/>
</svg>
