<svg width="21" height="20" viewBox="0 0 21 20" fill="none" xmlns="http://www.w3.org/2000/svg">
<path d="M10.01 0C4.49002 0 0.0200195 4.48 0.0200195 10C0.0200195 15.52 4.49002 20 10.01 20C15.54 20 20.02 15.52 20.02 10C20.02 4.48 15.54 0 10.01 0ZM10.02 18C5.60002 18 2.02002 14.42 2.02002 10C2.02002 5.58 5.60002 2 10.02 2C14.44 2 18.02 5.58 18.02 10C18.02 14.42 14.44 18 10.02 18ZM13.52 9C14.35 9 15.02 8.33 15.02 7.5C15.02 6.67 14.35 6 13.52 6C12.69 6 12.02 6.67 12.02 7.5C12.02 8.33 12.69 9 13.52 9ZM6.52002 9C7.35002 9 8.02002 8.33 8.02002 7.5C8.02002 6.67 7.35002 6 6.52002 6C5.69002 6 5.02002 6.67 5.02002 7.5C5.02002 8.33 5.69002 9 6.52002 9ZM10.02 15.5C12.05 15.5 13.82 14.39 14.77 12.75C14.96 12.42 14.72 12 14.33 12H5.71002C5.33002 12 5.08002 12.42 5.27002 12.75C6.22002 14.39 7.99002 15.5 10.02 15.5Z" fill="#A8A8A8"/>
</svg>
