<svg width="10" height="14" viewBox="0 0 10 14" fill="none" xmlns="http://www.w3.org/2000/svg">
<path d="M4.99967 0.333008C2.41967 0.333008 0.333008 2.41967 0.333008 4.99967C0.333008 7.77967 3.27967 11.613 4.49301 13.073C4.75967 13.393 5.24634 13.393 5.51301 13.073C6.71968 11.613 9.66634 7.77967 9.66634 4.99967C9.66634 2.41967 7.57967 0.333008 4.99967 0.333008ZM4.99967 6.66634C4.07967 6.66634 3.33301 5.91967 3.33301 4.99967C3.33301 4.07967 4.07967 3.33301 4.99967 3.33301C5.91967 3.33301 6.66634 4.07967 6.66634 4.99967C6.66634 5.91967 5.91967 6.66634 4.99967 6.66634Z" fill="#A8A8A8"/>
</svg>
