<svg width="18" height="18" viewBox="0 0 18 18" fill="none" xmlns="http://www.w3.org/2000/svg">
<path fill-rule="evenodd" clip-rule="evenodd" d="M9.00008 17.3327C13.6025 17.3327 17.3334 13.6017 17.3334 8.99935C17.3334 4.39698 13.6025 0.666016 9.00008 0.666016C4.39771 0.666016 0.666748 4.39698 0.666748 8.99935C0.666748 13.6017 4.39771 17.3327 9.00008 17.3327ZM14.2666 13.0875C15.1442 11.9585 15.6667 10.54 15.6667 8.99935C15.6667 5.59967 13.122 2.79434 9.83341 2.38426V5.77103C11.2711 6.14107 12.3334 7.44615 12.3334 8.99935C12.3334 9.61756 12.1651 10.1965 11.8719 10.6927L14.2666 13.0875ZM13.088 14.266L10.6933 11.8712C10.1971 12.1644 9.61822 12.3327 9.00008 12.3327C8.38194 12.3327 7.8031 12.1644 7.30685 11.8712L4.91212 14.266C6.04101 15.1435 7.45952 15.666 9.00008 15.666C10.5406 15.666 11.9592 15.1435 13.088 14.266ZM5.66675 8.99935C5.66675 9.61756 5.83504 10.1965 6.12831 10.6927L3.73359 13.0875C2.856 11.9585 2.33341 10.54 2.33341 8.99935C2.33341 5.59967 4.87815 2.79434 8.16675 2.38426V5.77103C6.72906 6.14107 5.66675 7.44615 5.66675 8.99935ZM9.00008 10.666C9.92056 10.666 10.6667 9.91982 10.6667 8.99935C10.6667 8.07887 9.92056 7.33268 9.00008 7.33268C8.07961 7.33268 7.33341 8.07887 7.33341 8.99935C7.33341 9.91982 8.07961 10.666 9.00008 10.666Z" fill="#72767C"/>
</svg>
