<svg width="69" height="72" viewBox="0 0 69 72" fill="none" xmlns="http://www.w3.org/2000/svg">
<g filter="url(#filter0_d_2_28612)">
<rect x="12" y="8" width="45" height="48" rx="22.5" fill="white" shape-rendering="crispEdges"/>
<path fill-rule="evenodd" clip-rule="evenodd" d="M29.965 21.066C31.138 21.012 31.512 21 34.5 21C37.488 21 37.862 21.013 39.034 21.066C40.206 21.119 41.006 21.306 41.706 21.577C42.439 21.854 43.104 22.287 43.654 22.847C44.214 23.396 44.646 24.06 44.922 24.794C45.194 25.494 45.38 26.294 45.434 27.464C45.488 28.639 45.5 29.013 45.5 32C45.5 34.988 45.487 35.362 45.434 36.535C45.381 37.705 45.194 38.505 44.922 39.205C44.646 39.9391 44.2133 40.6042 43.654 41.154C43.104 41.714 42.439 42.146 41.706 42.422C41.006 42.694 40.206 42.88 39.036 42.934C37.862 42.988 37.488 43 34.5 43C31.512 43 31.138 42.987 29.965 42.934C28.795 42.881 27.995 42.694 27.295 42.422C26.5609 42.146 25.8958 41.7133 25.346 41.154C24.7864 40.6047 24.3533 39.9399 24.077 39.206C23.806 38.506 23.62 37.706 23.566 36.536C23.512 35.361 23.5 34.987 23.5 32C23.5 29.012 23.513 28.638 23.566 27.466C23.619 26.294 23.806 25.494 24.077 24.794C24.3537 24.0601 24.7871 23.3953 25.347 22.846C25.896 22.2865 26.5605 21.8534 27.294 21.577C27.994 21.306 28.794 21.12 29.964 21.066H29.965ZM38.945 23.046C37.785 22.993 37.437 22.982 34.5 22.982C31.563 22.982 31.215 22.993 30.055 23.046C28.982 23.095 28.4 23.274 28.012 23.425C27.499 23.625 27.132 23.862 26.747 24.247C26.382 24.6021 26.1012 25.0343 25.925 25.512C25.774 25.9 25.595 26.482 25.546 27.555C25.493 28.715 25.482 29.063 25.482 32C25.482 34.937 25.493 35.285 25.546 36.445C25.595 37.518 25.774 38.1 25.925 38.488C26.101 38.965 26.382 39.398 26.747 39.753C27.102 40.118 27.535 40.399 28.012 40.575C28.4 40.726 28.982 40.905 30.055 40.954C31.215 41.007 31.562 41.018 34.5 41.018C37.438 41.018 37.785 41.007 38.945 40.954C40.018 40.905 40.6 40.726 40.988 40.575C41.501 40.375 41.868 40.138 42.253 39.753C42.618 39.398 42.899 38.965 43.075 38.488C43.226 38.1 43.405 37.518 43.454 36.445C43.507 35.285 43.518 34.937 43.518 32C43.518 29.063 43.507 28.715 43.454 27.555C43.405 26.482 43.226 25.9 43.075 25.512C42.875 24.999 42.638 24.632 42.253 24.247C41.8979 23.8821 41.4657 23.6012 40.988 23.425C40.6 23.274 40.018 23.095 38.945 23.046V23.046ZM33.095 35.391C33.8797 35.7176 34.7534 35.7617 35.5669 35.5157C36.3805 35.2697 37.0834 34.7489 37.5556 34.0422C38.0278 33.3356 38.2401 32.4869 38.156 31.6411C38.072 30.7953 37.697 30.005 37.095 29.405C36.7112 29.0215 36.2472 28.7278 35.7363 28.5451C35.2255 28.3625 34.6804 28.2954 34.1405 28.3486C33.6006 28.4019 33.0792 28.5742 32.6138 28.8531C32.1485 29.1321 31.7507 29.5107 31.4493 29.9619C31.1479 30.413 30.9502 30.9253 30.8705 31.462C30.7908 31.9986 30.8312 32.5463 30.9885 33.0655C31.1459 33.5847 31.4165 34.0626 31.7807 34.4647C32.145 34.8668 32.5938 35.1832 33.095 35.391ZM30.502 28.002C31.027 27.477 31.6503 27.0605 32.3363 26.7764C33.0223 26.4922 33.7575 26.346 34.5 26.346C35.2425 26.346 35.9777 26.4922 36.6637 26.7764C37.3497 27.0605 37.973 27.477 38.498 28.002C39.023 28.527 39.4395 29.1503 39.7236 29.8363C40.0078 30.5223 40.154 31.2575 40.154 32C40.154 32.7425 40.0078 33.4777 39.7236 34.1637C39.4395 34.8497 39.023 35.473 38.498 35.998C37.4377 37.0583 35.9995 37.654 34.5 37.654C33.0005 37.654 31.5623 37.0583 30.502 35.998C29.4417 34.9377 28.846 33.4995 28.846 32C28.846 30.5005 29.4417 29.0623 30.502 28.002V28.002ZM41.408 27.188C41.5381 27.0653 41.6423 26.9177 41.7143 26.754C41.7863 26.5903 41.8248 26.4138 41.8274 26.2349C41.83 26.0561 41.7967 25.8785 41.7295 25.7128C41.6622 25.5471 41.5624 25.3965 41.436 25.27C41.3095 25.1436 41.1589 25.0438 40.9932 24.9765C40.8275 24.9093 40.6499 24.876 40.4711 24.8786C40.2922 24.8812 40.1157 24.9197 39.952 24.9917C39.7883 25.0637 39.6407 25.1679 39.518 25.298C39.2793 25.551 39.1486 25.8871 39.1537 26.2349C39.1588 26.5827 39.2992 26.9149 39.5452 27.1608C39.7911 27.4068 40.1233 27.5472 40.4711 27.5523C40.8189 27.5574 41.155 27.4267 41.408 27.188V27.188Z" fill="#1D1D1D"/>
</g>
<defs>
<filter id="filter0_d_2_28612" x="0" y="0" width="69" height="72" filterUnits="userSpaceOnUse" color-interpolation-filters="sRGB">
<feFlood flood-opacity="0" result="BackgroundImageFix"/>
<feColorMatrix in="SourceAlpha" type="matrix" values="0 0 0 0 0 0 0 0 0 0 0 0 0 0 0 0 0 0 127 0" result="hardAlpha"/>
<feOffset dy="4"/>
<feGaussianBlur stdDeviation="6"/>
<feComposite in2="hardAlpha" operator="out"/>
<feColorMatrix type="matrix" values="0 0 0 0 0.1125 0 0 0 0 0.1125 0 0 0 0 0.1125 0 0 0 0.15 0"/>
<feBlend mode="normal" in2="BackgroundImageFix" result="effect1_dropShadow_2_28612"/>
<feBlend mode="normal" in="SourceGraphic" in2="effect1_dropShadow_2_28612" result="shape"/>
</filter>
</defs>
</svg>
