<svg width="34" height="23" viewBox="0 0 34 23" fill="none" xmlns="http://www.w3.org/2000/svg">
<path d="M7.08384 17.3049C5.63915 17.3049 4.38263 17.0425 3.31429 16.5175C2.24595 15.9804 1.42648 15.2235 0.855888 14.2468C0.285296 13.2702 0 12.1348 0 10.8408C0 9.04618 0.333857 7.45303 1.00157 6.06131C1.68143 4.66959 2.59801 3.59528 3.75134 2.83838C4.90466 2.06927 6.18546 1.68471 7.59373 1.68471C8.90488 1.68471 9.90038 2.02654 10.5802 2.71019C11.2601 3.38163 11.6 4.27282 11.6 5.38376C11.6 6.12845 11.4665 6.72664 11.1994 7.17834C10.9444 7.63004 10.5742 7.85589 10.0886 7.85589C9.74862 7.85589 9.48154 7.77654 9.2873 7.61784C9.09305 7.45913 8.99593 7.22718 8.99593 6.92197C8.99593 6.8121 9.02021 6.61067 9.06877 6.31767C9.14161 5.95143 9.17803 5.65844 9.17803 5.43869C9.17803 4.32776 8.58923 3.77229 7.41163 3.77229C6.61037 3.77229 5.84553 4.03477 5.11712 4.55971C4.3887 5.08466 3.7999 5.85987 3.35071 6.88535C2.90152 7.89862 2.67693 9.10722 2.67693 10.5111C2.67693 11.9761 3.08362 13.1115 3.89702 13.9172C4.71042 14.7107 5.9123 15.1075 7.50268 15.1075C8.29179 15.1075 9.08698 15.0098 9.88824 14.8145C10.7016 14.607 11.6 14.2956 12.5834 13.8806C12.7655 13.8073 12.9172 13.7707 13.0386 13.7707C13.2329 13.7707 13.3786 13.8439 13.4757 13.9904C13.5728 14.1369 13.6214 14.3262 13.6214 14.5581C13.6214 15.3028 13.2207 15.8522 12.4195 16.2062C11.5575 16.5847 10.6591 16.8654 9.72434 17.0486C8.80169 17.2195 7.92152 17.3049 7.08384 17.3049ZM14.4326 17.3049C13.6799 17.3049 13.0789 17.0303 12.6298 16.4809C12.1806 15.9315 11.956 15.2113 11.956 14.3201C11.956 13.3434 12.1806 12.4217 12.6298 11.5549C13.0789 10.676 13.6738 9.97399 14.4144 9.44904C15.1671 8.91189 15.9623 8.64331 16.8 8.64331C17.0671 8.64331 17.2431 8.69825 17.3281 8.80812C17.4252 8.90579 17.5041 9.08891 17.5648 9.35748C17.8198 9.30865 18.0869 9.28424 18.3661 9.28424C18.961 9.28424 19.2584 9.49787 19.2584 9.92516C19.2584 10.1815 19.1673 10.7919 18.9852 11.7564C18.706 13.1603 18.5664 14.1369 18.5664 14.6863C18.5664 14.8694 18.6089 15.0159 18.6939 15.1258C18.791 15.2357 18.9124 15.2906 19.0581 15.2906C19.2887 15.2906 19.568 15.1441 19.8958 14.8511C20.2235 14.5459 20.6667 14.0576 21.2251 13.3861C21.3708 13.2152 21.5347 13.1298 21.7168 13.1298C21.8746 13.1298 21.996 13.203 22.081 13.3495C22.1781 13.496 22.2267 13.6974 22.2267 13.9538C22.2267 14.4421 22.1113 14.8206 21.8807 15.0892C21.3829 15.7118 20.8548 16.2367 20.2964 16.664C19.7379 17.0913 19.1977 17.3049 18.6757 17.3049C18.275 17.3049 17.9048 17.1706 17.5648 16.9021C17.237 16.6213 16.9882 16.2428 16.8182 15.7667C16.1869 16.7922 15.3917 17.3049 14.4326 17.3049ZM15.0882 15.4554C15.3553 15.4554 15.6102 15.2967 15.853 14.9793C16.0959 14.6619 16.2719 14.2407 16.3812 13.7158L17.0549 10.3463C16.545 10.3585 16.0716 10.5539 15.6345 10.9323C15.2096 11.2986 14.8697 11.7869 14.6147 12.3973C14.3598 13.0077 14.2323 13.6547 14.2323 14.3384C14.2323 14.7168 14.3052 14.9976 14.4508 15.1807C14.6087 15.3639 14.8211 15.4554 15.0882 15.4554ZM27.8347 12.086C28.1746 12.086 28.3446 12.3424 28.3446 12.8551C28.3446 13.8195 27.5919 14.3017 26.0865 14.3017C25.7952 14.3017 25.3763 14.2468 24.83 14.1369C24.9878 14.8938 25.1153 15.7362 25.2124 16.664C25.3217 17.5796 25.3763 18.3365 25.3763 18.9347C25.3763 20.2532 25.1639 21.2604 24.739 21.9562C24.314 22.6521 23.7556 23 23.0636 23C22.1895 23 21.5643 22.3774 21.1879 21.1322C20.8237 19.8869 20.6416 18.0069 20.6416 15.492C20.6416 13.1481 20.8905 10.7736 21.3882 8.36863C21.8981 5.95143 22.5901 3.95541 23.4642 2.38057C24.3505 0.793521 25.3217 0 26.3779 0C26.9485 0 27.3916 0.256366 27.7072 0.769105C28.035 1.28184 28.1989 1.9716 28.1989 2.83838C28.1989 5.70727 26.4932 8.83253 23.0818 12.2142C22.9604 13.4106 22.8997 14.4605 22.8997 15.3638C22.8997 16.6213 22.9422 17.9092 23.0272 19.2277C23.1122 20.5584 23.2518 21.2237 23.446 21.2237C23.8102 21.2237 23.9923 20.5889 23.9923 19.3193C23.9923 18.367 23.9256 17.4453 23.792 16.5541C23.6706 15.663 23.5007 14.7229 23.2821 13.7341C23.27 13.5754 23.3185 13.3739 23.4278 13.1298C23.5492 12.8856 23.6949 12.672 23.8649 12.4889C24.0348 12.3057 24.1866 12.2142 24.3201 12.2142C24.5629 12.2142 24.8543 12.2264 25.1942 12.2508C25.3035 12.263 25.431 12.2691 25.5766 12.2691C26.0622 12.2691 26.6025 12.2264 27.1974 12.1409C27.2945 12.1287 27.3977 12.1165 27.5069 12.1043C27.6162 12.0921 27.7255 12.086 27.8347 12.086ZM25.9955 1.8129C25.7769 1.8129 25.5038 2.18524 25.176 2.92993C24.8604 3.67463 24.5447 4.66348 24.2291 5.89649C23.9134 7.1173 23.6403 8.41136 23.4096 9.77866C24.3808 8.66772 25.1274 7.51407 25.6495 6.31767C26.1715 5.10908 26.4386 3.97983 26.4507 2.92993C26.4507 2.18524 26.299 1.8129 25.9955 1.8129ZM33.4901 13.6791C33.6479 13.6791 33.7693 13.7524 33.8543 13.8989C33.9514 14.0454 34 14.2468 34 14.5032C34 14.9427 33.8968 15.3211 33.6904 15.6385C33.3505 16.1635 32.9013 16.5725 32.3429 16.8654C31.7965 17.1584 31.141 17.3049 30.3761 17.3049C29.2107 17.3049 28.3062 16.957 27.6628 16.2611C27.0194 15.5531 26.6976 14.6009 26.6976 13.4045C26.6976 12.5621 26.8737 11.7808 27.2257 11.0605C27.5778 10.328 28.0634 9.74814 28.6826 9.32086C29.3139 8.89357 30.0241 8.67994 30.8132 8.67994C31.5173 8.67994 32.0818 8.89357 32.5067 9.32086C32.9317 9.73593 33.1441 10.3036 33.1441 11.0239C33.1441 11.8662 32.8406 12.5926 32.2336 13.203C31.6387 13.8012 30.6189 14.2773 29.1742 14.6314C29.4656 15.1929 29.9573 15.4737 30.6493 15.4737C31.147 15.4737 31.5537 15.3577 31.8694 15.1258C32.1972 14.8938 32.5735 14.5032 32.9984 13.9538C33.1441 13.7707 33.308 13.6791 33.4901 13.6791ZM30.5036 10.4745C30.0544 10.4745 29.672 10.737 29.3564 11.2619C29.0528 11.7869 28.9011 12.4217 28.9011 13.1664V13.203C29.6174 13.0321 30.1819 12.7757 30.5947 12.4339C31.0074 12.0921 31.2138 11.6953 31.2138 11.2436C31.2138 11.0117 31.147 10.8286 31.0135 10.6943C30.8921 10.5478 30.7221 10.4745 30.5036 10.4745Z" fill="#FF912B"/>
</svg>
