<svg width="14" height="14" viewBox="0 0 14 14" fill="none" xmlns="http://www.w3.org/2000/svg">
<path d="M0.459473 8.52725C0.865473 9.85675 1.68938 11.0199 2.80898 11.844C3.92848 12.6681 5.28397 13.1093 6.67407 13.1019C8.06417 13.0945 9.41487 12.639 10.5257 11.8031C11.6364 10.9672 12.448 9.79535 12.8399 8.46159C13.2318 7.12781 13.1831 5.70321 12.7011 4.39929C12.2191 3.09537 11.3295 1.98164 10.1642 1.22345C8.99897 0.465265 7.62038 0.103045 6.23298 0.190555C4.84557 0.278075 3.52337 0.810665 2.46267 1.70927L4.61448 4.24918C5.12878 3.81347 5.76987 3.55523 6.44257 3.51279C7.11527 3.47037 7.78367 3.646 8.34867 4.01362C8.91367 4.38124 9.34507 4.92125 9.57877 5.55349C9.81247 6.18572 9.83607 6.87646 9.64607 7.52317C9.45597 8.16988 9.06248 8.73808 8.52398 9.14335C7.98538 9.54875 7.33047 9.76955 6.65648 9.77315C5.98238 9.77675 5.32518 9.56285 4.78238 9.16325C4.23948 8.76365 3.83997 8.19967 3.64317 7.55501L0.459473 8.52725Z" fill="#2F2105"/>
</svg>
