<svg width="50" height="16" viewBox="0 0 50 16" fill="none" xmlns="http://www.w3.org/2000/svg">
<path d="M5.3655 16C3.74181 16 2.44164 15.6973 1.46498 15.0919C0.488326 14.4745 0 13.5361 0 12.277C0 11.611 0.115976 11.1025 0.347931 10.7514C0.579887 10.4003 0.921717 10.2247 1.37342 10.2247C1.70304 10.2247 1.97162 10.3095 2.17916 10.479C2.3867 10.6485 2.49047 10.8664 2.49047 11.1328C2.49047 11.375 2.47216 11.5868 2.43553 11.7684C2.43553 11.8169 2.42332 11.9016 2.39891 12.0227C2.3867 12.1438 2.3806 12.2709 2.3806 12.4041C2.3806 12.9489 2.65528 13.3545 3.20465 13.6209C3.76622 13.8872 4.54755 14.0204 5.54862 14.0204C6.58632 14.0204 7.39816 13.8388 7.98415 13.4756C8.57014 13.1003 8.86314 12.5796 8.86314 11.9137C8.86314 11.5021 8.72885 11.151 8.46027 10.8604C8.19169 10.5577 7.85597 10.3095 7.4531 10.1158C7.05023 9.90995 6.48255 9.66175 5.75006 9.37117C4.81002 9.00795 4.04091 8.66289 3.44271 8.33598C2.85671 8.00908 2.35008 7.56716 1.92279 7.01021C1.50771 6.44116 1.30017 5.73893 1.30017 4.90352C1.30017 4.03178 1.53213 3.25691 1.99604 2.57889C2.47216 1.90087 3.14971 1.3742 4.0287 0.998864C4.9199 0.623533 5.9637 0.435871 7.1601 0.435871C8.0513 0.435871 8.86925 0.569053 9.61395 0.835417C10.3586 1.08967 10.9507 1.48316 11.3902 2.01589C11.8419 2.54862 12.0678 3.20242 12.0678 3.9773C12.0678 4.74007 11.9518 5.31517 11.7199 5.70261C11.4879 6.09005 11.1461 6.28377 10.6944 6.28377C10.377 6.28377 10.1084 6.18691 9.88863 5.99319C9.68109 5.79947 9.57732 5.56943 9.57732 5.30307C9.57732 5.07302 9.59563 4.86115 9.63226 4.66743C9.66888 4.3042 9.68719 4.07416 9.68719 3.9773C9.68719 3.46879 9.43693 3.08135 8.93639 2.81498C8.43585 2.54862 7.81324 2.41544 7.06854 2.41544C6.01864 2.41544 5.21289 2.60916 4.65132 2.9966C4.10195 3.37193 3.82727 3.90466 3.82727 4.59478C3.82727 5.05487 3.96766 5.44836 4.24845 5.77526C4.54144 6.10216 4.90158 6.37458 5.32887 6.59251C5.75616 6.81045 6.35436 7.07075 7.12348 7.37344C8.0513 7.74877 8.796 8.08778 9.35757 8.39047C9.91915 8.69315 10.3953 9.1048 10.7859 9.62542C11.1888 10.146 11.3902 10.7877 11.3902 11.5505C11.3902 12.9792 10.8409 14.081 9.74213 14.8558C8.6556 15.6186 7.19672 16 5.3655 16ZM20.9418 11.8048C21.1005 11.8048 21.2226 11.8774 21.308 12.0227C21.4057 12.168 21.4545 12.3678 21.4545 12.622C21.4545 13.1063 21.3385 13.4817 21.1066 13.748C20.5816 14.3897 20.0078 14.9164 19.3852 15.328C18.7626 15.7397 18.0484 15.9455 17.2427 15.9455C14.7522 15.9455 13.507 14.2081 13.507 10.7333C13.507 10.2005 13.5253 9.66175 13.5619 9.11691H12.8477C12.4815 9.11691 12.2312 9.05032 12.0969 8.91714C11.9749 8.78396 11.9138 8.57207 11.9138 8.2815C11.9138 7.60348 12.1885 7.26447 12.7379 7.26447H13.7817C13.9892 5.93266 14.3066 4.71585 14.7339 3.61407C15.1612 2.5123 15.6739 1.63451 16.2721 0.980707C16.8825 0.326905 17.5357 0 18.2315 0C18.7443 0 19.1472 0.223988 19.4402 0.671964C19.7332 1.11994 19.8797 1.68294 19.8797 2.36095C19.8797 4.23761 19.0861 5.87212 17.4991 7.26447H19.55C19.7454 7.26447 19.8858 7.30685 19.9712 7.3916C20.0567 7.47635 20.0994 7.63375 20.0994 7.86379C20.0994 8.69921 19.4096 9.11691 18.0301 9.11691H15.796C15.7716 9.72229 15.7594 10.1945 15.7594 10.5335C15.7594 11.7927 15.9059 12.6765 16.1989 13.185C16.5041 13.6935 16.9802 13.9478 17.6272 13.9478C18.1522 13.9478 18.6161 13.7904 19.019 13.4756C19.4219 13.1608 19.898 12.6886 20.4473 12.059C20.5938 11.8895 20.7586 11.8048 20.9418 11.8048ZM17.7371 1.74347C17.554 1.74347 17.3465 1.97352 17.1145 2.4336C16.8948 2.88158 16.6811 3.51116 16.4736 4.32236C16.2782 5.12146 16.1134 6.01135 15.9791 6.99206C16.6994 6.37458 17.2366 5.68445 17.5906 4.92168C17.9569 4.14681 18.14 3.44457 18.14 2.81498C18.14 2.10064 18.0057 1.74347 17.7371 1.74347ZM21.2638 15.9455C20.7999 15.9455 20.4702 15.7034 20.2749 15.2191C20.0918 14.7348 20.0002 13.9599 20.0002 12.8944C20.0002 11.3205 20.2261 9.8252 20.6778 8.40863C20.7876 8.05751 20.9647 7.80325 21.2088 7.64586C21.4652 7.47635 21.8192 7.3916 22.2709 7.3916C22.5151 7.3916 22.686 7.42187 22.7837 7.4824C22.8813 7.54294 22.9302 7.65796 22.9302 7.82747C22.9302 8.02119 22.8386 8.45706 22.6555 9.13508C22.5334 9.61937 22.4357 10.0431 22.3625 10.4064C22.2892 10.7696 22.2282 11.2176 22.1794 11.7503C22.5822 10.709 23.0339 9.86152 23.5345 9.20772C24.035 8.55392 24.5233 8.08778 24.9995 7.80931C25.4878 7.53083 25.9334 7.3916 26.3363 7.3916C27.1298 7.3916 27.5266 7.78509 27.5266 8.57208C27.5266 8.72947 27.4716 9.11086 27.3617 9.71623C27.2641 10.2005 27.2153 10.5032 27.2153 10.6243C27.2153 11.048 27.3679 11.2599 27.6731 11.2599C28.0149 11.2599 28.4544 10.9936 28.9915 10.4608C29.1502 10.3034 29.3151 10.2247 29.486 10.2247C29.6447 10.2247 29.7668 10.2974 29.8522 10.4427C29.9499 10.5759 29.9987 10.7575 29.9987 10.9875C29.9987 11.4355 29.8766 11.7866 29.6325 12.0409C29.2906 12.392 28.8878 12.6947 28.4239 12.9489C27.9722 13.1911 27.4899 13.3121 26.9772 13.3121C26.3302 13.3121 25.8357 13.1487 25.4939 12.8218C25.1643 12.4949 24.9995 12.053 24.9995 11.496C24.9995 11.3144 25.0178 11.1328 25.0544 10.9512C25.0788 10.709 25.091 10.5456 25.091 10.4608C25.091 10.2671 25.0239 10.1703 24.8896 10.1703C24.7065 10.1703 24.4623 10.3761 24.1571 10.7877C23.8641 11.1873 23.5711 11.72 23.2781 12.3859C22.9851 13.0518 22.7471 13.7541 22.5639 14.4926C22.4296 15.0617 22.2709 15.4491 22.0878 15.6549C21.9169 15.8487 21.6422 15.9455 21.2638 15.9455ZM36.4643 11.8048C36.623 11.8048 36.7451 11.8774 36.8306 12.0227C36.9282 12.168 36.9771 12.3678 36.9771 12.622C36.9771 13.1063 36.8611 13.4817 36.6291 13.748C36.1774 14.2929 35.5365 14.7953 34.7063 15.2554C33.8884 15.7155 33.0094 15.9455 32.0694 15.9455C30.7875 15.9455 29.7925 15.6005 29.0845 14.9103C28.3764 14.2202 28.0224 13.2758 28.0224 12.0772C28.0224 11.2418 28.1994 10.4669 28.5534 9.75255C28.9075 9.0261 29.3958 8.451 30.0184 8.02724C30.6532 7.60348 31.3674 7.3916 32.1609 7.3916C32.869 7.3916 33.4367 7.60348 33.864 8.02724C34.2913 8.43889 34.5049 9.00189 34.5049 9.71623C34.5049 10.5516 34.1997 11.272 33.5893 11.8774C32.9911 12.4707 31.9717 12.9429 30.5311 13.294C30.8364 13.8509 31.4162 14.1294 32.2708 14.1294C32.8202 14.1294 33.4428 13.9417 34.1387 13.5664C34.8467 13.179 35.4571 12.6765 35.9699 12.059C36.1164 11.8895 36.2812 11.8048 36.4643 11.8048ZM31.8496 9.1714C31.3979 9.1714 31.0134 9.4317 30.696 9.95232C30.3908 10.4729 30.2381 11.1025 30.2381 11.8411V11.8774C30.9584 11.7079 31.5261 11.4537 31.9412 11.1146C32.3563 10.7756 32.5638 10.3821 32.5638 9.93417C32.5638 9.70413 32.4967 9.52251 32.3624 9.38933C32.2403 9.24404 32.0694 9.1714 31.8496 9.1714ZM43.6534 11.8048C43.8121 11.8048 43.9342 11.8774 44.0197 12.0227C44.1173 12.168 44.1662 12.3678 44.1662 12.622C44.1662 13.1063 44.0502 13.4817 43.8182 13.748C43.3665 14.2929 42.7256 14.7953 41.8954 15.2554C41.0775 15.7155 40.1985 15.9455 39.2585 15.9455C37.9766 15.9455 36.9816 15.6005 36.2736 14.9103C35.5655 14.2202 35.2115 13.2758 35.2115 12.0772C35.2115 11.2418 35.3885 10.4669 35.7425 9.75255C36.0966 9.0261 36.5849 8.451 37.2075 8.02724C37.8423 7.60348 38.5565 7.3916 39.35 7.3916C40.0581 7.3916 40.6258 7.60348 41.0531 8.02724C41.4804 8.43889 41.694 9.00189 41.694 9.71623C41.694 10.5516 41.3888 11.272 40.7784 11.8774C40.1802 12.4707 39.1608 12.9429 37.7202 13.294C38.0254 13.8509 38.6053 14.1294 39.4599 14.1294C40.0093 14.1294 40.6319 13.9417 41.3278 13.5664C42.0358 13.179 42.6462 12.6765 43.159 12.059C43.3055 11.8895 43.4703 11.8048 43.6534 11.8048ZM39.0387 9.1714C38.587 9.1714 38.2025 9.4317 37.8851 9.95232C37.5798 10.4729 37.4272 11.1025 37.4272 11.8411V11.8774C38.1475 11.7079 38.7152 11.4537 39.1303 11.1146C39.5454 10.7756 39.7529 10.3821 39.7529 9.93417C39.7529 9.70413 39.6858 9.52251 39.5515 9.38933C39.4294 9.24404 39.2585 9.1714 39.0387 9.1714ZM45.6966 9.11691C45.6722 9.72229 45.66 10.1945 45.66 10.5335C45.66 11.4052 45.7027 12.0893 45.7882 12.5857C45.8858 13.07 46.0384 13.4211 46.246 13.639C46.4657 13.8449 46.7648 13.9478 47.1433 13.9478C47.3386 13.9478 47.5706 13.8872 47.8391 13.7662C48.1077 13.6451 48.3519 13.4877 48.5716 13.294C48.7059 13.1729 48.8402 13.1124 48.9745 13.1124C49.121 13.1124 49.237 13.1971 49.3224 13.3666C49.4201 13.524 49.4689 13.7177 49.4689 13.9478C49.4689 14.1778 49.4201 14.4018 49.3224 14.6197C49.237 14.8377 49.1027 15.0193 48.9196 15.1646C48.2847 15.6852 47.5645 15.9455 46.7587 15.9455C45.5989 15.9455 44.7505 15.4673 44.2133 14.5108C43.6762 13.5422 43.4076 12.283 43.4076 10.7333C43.4076 10.2005 43.4259 9.66175 43.4625 9.11691H42.7483C42.3821 9.11691 42.1318 9.05032 41.9975 8.91714C41.8755 8.78396 41.8144 8.57207 41.8144 8.2815C41.8144 7.60348 42.0891 7.26447 42.6385 7.26447H43.6823C43.8898 5.93266 44.2072 4.71585 44.6345 3.61407C45.0618 2.5123 45.5745 1.63451 46.1727 0.980707C46.7831 0.326905 47.4363 0 48.1321 0C48.6449 0 49.0478 0.223988 49.3408 0.671964C49.6338 1.11994 49.7803 1.68294 49.7803 2.36095C49.7803 4.23761 48.9867 5.87212 47.3997 7.26447H49.4506C49.646 7.26447 49.7864 7.30685 49.8718 7.3916C49.9573 7.47635 50 7.63375 50 7.86379C50 8.69921 49.3102 9.11691 47.9307 9.11691H45.6966ZM47.6377 1.74347C47.4546 1.74347 47.2471 1.97352 47.0151 2.4336C46.7953 2.88158 46.5817 3.51116 46.3742 4.32236C46.1788 5.12146 46.014 6.01135 45.8797 6.99206C46.6 6.37458 47.1372 5.68445 47.4912 4.92168C47.8575 4.14681 48.0406 3.44457 48.0406 2.81498C48.0406 2.10064 47.9063 1.74347 47.6377 1.74347Z" fill="#2F2105"/>
</svg>
