<svg width="28" height="26" viewBox="0 0 28 26" fill="none" xmlns="http://www.w3.org/2000/svg">
<path d="M5.66675 6.33325H24.0534C24.426 6.33327 24.7944 6.41135 25.1349 6.56246C25.4755 6.71357 25.7806 6.93436 26.0306 7.2106C26.2805 7.48684 26.4699 7.8124 26.5863 8.16629C26.7028 8.52018 26.7438 8.89454 26.7068 9.26525L25.9068 17.2653C25.841 17.9233 25.533 18.5333 25.0427 18.9771C24.5524 19.4208 23.9147 19.6666 23.2534 19.6666H10.5201C9.90338 19.6668 9.30565 19.4533 8.82867 19.0624C8.3517 18.6715 8.02496 18.1273 7.90408 17.5226L5.66675 6.33325Z" stroke="#1D1D1D" stroke-width="2" stroke-linejoin="round"/>
<path d="M9.66675 25H12.3334M20.3334 25H23.0001M5.66675 6.33333L4.58675 2.00933C4.51452 1.721 4.34802 1.46508 4.11369 1.28221C3.87937 1.09934 3.59065 1.00001 3.29341 1H1.66675L5.66675 6.33333Z" stroke="#1D1D1D" stroke-width="2" stroke-linecap="round" stroke-linejoin="round"/>
</svg>
