<svg width="69" height="72" viewBox="0 0 69 72" fill="none" xmlns="http://www.w3.org/2000/svg">
<g filter="url(#filter0_d_2_28615)">
<rect x="12" y="8" width="45" height="48" rx="22.5" fill="white" shape-rendering="crispEdges"/>
<path d="M45.853 24.9603C45.018 25.3303 44.121 25.5803 43.178 25.6933C44.151 25.1111 44.8789 24.1947 45.226 23.1153C44.3118 23.6583 43.3113 24.0405 42.268 24.2453C41.5664 23.4961 40.637 22.9996 39.6243 22.8327C38.6116 22.6659 37.5721 22.8381 36.6672 23.3225C35.7624 23.807 35.0427 24.5766 34.6201 25.512C34.1975 26.4473 34.0955 27.496 34.33 28.4953C32.4777 28.4023 30.6656 27.9208 29.0114 27.0822C27.3572 26.2435 25.8978 25.0664 24.728 23.6273C24.328 24.3173 24.098 25.1173 24.098 25.9693C24.0975 26.7363 24.2864 27.4915 24.6479 28.168C25.0093 28.8445 25.5321 29.4213 26.17 29.8473C25.4302 29.8237 24.7068 29.6239 24.06 29.2643V29.3243C24.0599 30.4 24.432 31.4426 25.1132 32.2753C25.7943 33.1079 26.7425 33.6792 27.797 33.8923C27.1108 34.078 26.3913 34.1053 25.693 33.9723C25.9905 34.8979 26.57 35.7073 27.3503 36.2872C28.1307 36.8671 29.0729 37.1885 30.045 37.2063C28.3948 38.5017 26.3569 39.2044 24.259 39.2013C23.8874 39.2014 23.516 39.1797 23.147 39.1363C25.2764 40.5054 27.7553 41.2321 30.287 41.2293C38.857 41.2293 43.542 34.1313 43.542 27.9753C43.542 27.7753 43.537 27.5733 43.528 27.3733C44.4393 26.7142 45.2259 25.8982 45.851 24.9633L45.853 24.9603V24.9603Z" fill="#1D1D1D"/>
</g>
<defs>
<filter id="filter0_d_2_28615" x="0" y="0" width="69" height="72" filterUnits="userSpaceOnUse" color-interpolation-filters="sRGB">
<feFlood flood-opacity="0" result="BackgroundImageFix"/>
<feColorMatrix in="SourceAlpha" type="matrix" values="0 0 0 0 0 0 0 0 0 0 0 0 0 0 0 0 0 0 127 0" result="hardAlpha"/>
<feOffset dy="4"/>
<feGaussianBlur stdDeviation="6"/>
<feComposite in2="hardAlpha" operator="out"/>
<feColorMatrix type="matrix" values="0 0 0 0 0.1125 0 0 0 0 0.1125 0 0 0 0 0.1125 0 0 0 0.15 0"/>
<feBlend mode="normal" in2="BackgroundImageFix" result="effect1_dropShadow_2_28615"/>
<feBlend mode="normal" in="SourceGraphic" in2="effect1_dropShadow_2_28615" result="shape"/>
</filter>
</defs>
</svg>
