<svg width="14" height="14" viewBox="0 0 14 14" fill="none" xmlns="http://www.w3.org/2000/svg">
<path d="M6.56669 1.53592C6.75336 1.04359 7.45977 1.04359 7.64702 1.53592L8.85452 4.88075C8.89665 4.98971 8.97083 5.08334 9.06727 5.14926C9.16371 5.21519 9.27787 5.25031 9.39469 5.25H12.3621C12.9104 5.25 13.1496 5.93251 12.7185 6.26676L10.6069 8.16667C10.5123 8.23939 10.4431 8.3402 10.4094 8.45464C10.3756 8.56908 10.379 8.69127 10.419 8.80367L11.1902 12.0721C11.378 12.5971 10.7702 13.048 10.3105 12.7248L7.44227 10.9048C7.34405 10.8358 7.22691 10.7988 7.10686 10.7988C6.9868 10.7988 6.86966 10.8358 6.77144 10.9048L3.90319 12.7248C3.44411 13.048 2.83569 12.5965 3.02352 12.0721L3.79469 8.80367C3.83469 8.69127 3.83806 8.56908 3.80432 8.45464C3.77057 8.3402 3.70145 8.23939 3.60686 8.16667L1.49519 6.26676C1.06352 5.93251 1.30386 5.25 1.85102 5.25H4.81844C4.93528 5.25039 5.04948 5.2153 5.14593 5.14936C5.24239 5.08343 5.31655 4.98976 5.35861 4.88075L6.56611 1.53592H6.56669Z" fill="#FFD057" stroke="#FFD057" stroke-linecap="round" stroke-linejoin="round"/>
</svg>
