<svg width="18" height="18" viewBox="0 0 18 18" fill="none" xmlns="http://www.w3.org/2000/svg">
<path d="M12.4999 10.9996H11.7099L11.4299 10.7296C12.6299 9.32965 13.2499 7.41965 12.9099 5.38965C12.4399 2.60965 10.1199 0.389649 7.31989 0.049649C3.08989 -0.470351 -0.470107 3.08965 0.0498932 7.31965C0.389893 10.1196 2.60989 12.4396 5.38989 12.9096C7.41989 13.2496 9.32989 12.6296 10.7299 11.4296L10.9999 11.7096V12.4996L15.2499 16.7496C15.6599 17.1596 16.3299 17.1596 16.7399 16.7496C17.1499 16.3396 17.1499 15.6696 16.7399 15.2596L12.4999 10.9996ZM6.49989 10.9996C4.00989 10.9996 1.99989 8.98965 1.99989 6.49965C1.99989 4.00965 4.00989 1.99965 6.49989 1.99965C8.98989 1.99965 10.9999 4.00965 10.9999 6.49965C10.9999 8.98965 8.98989 10.9996 6.49989 10.9996Z" fill="#161616"/>
</svg>
