<svg width="48" height="48" viewBox="0 0 48 48" fill="none" xmlns="http://www.w3.org/2000/svg">
<path d="M21.2 33.1003L32.0966 24.9337C32.7266 24.467 32.7266 23.5337 32.0966 23.067L21.2 14.9003C20.43 14.317 19.3333 14.877 19.3333 15.8337V32.167C19.3333 33.1237 20.43 33.6837 21.2 33.1003ZM24 0.666992C11.12 0.666992 0.666626 11.1203 0.666626 24.0003C0.666626 36.8803 11.12 47.3337 24 47.3337C36.88 47.3337 47.3333 36.8803 47.3333 24.0003C47.3333 11.1203 36.88 0.666992 24 0.666992ZM24 42.667C13.71 42.667 5.33329 34.2903 5.33329 24.0003C5.33329 13.7103 13.71 5.33366 24 5.33366C34.29 5.33366 42.6666 13.7103 42.6666 24.0003C42.6666 34.2903 34.29 42.667 24 42.667Z" fill="#00FFE0"/>
</svg>
