<svg width="23" height="20" viewBox="0 0 23 20" fill="none" xmlns="http://www.w3.org/2000/svg">
<path d="M22.853 2.96027C22.018 3.33027 21.121 3.58027 20.178 3.69327C21.151 3.11106 21.8789 2.19474 22.226 1.11527C21.3118 1.65826 20.3113 2.04047 19.268 2.24527C18.5664 1.49614 17.637 0.999597 16.6243 0.832744C15.6116 0.665892 14.5721 0.838062 13.6672 1.32252C12.7624 1.80698 12.0427 2.57663 11.6201 3.51197C11.1975 4.44732 11.0955 5.49602 11.33 6.49527C9.47766 6.40227 7.6656 5.92082 6.0114 5.08218C4.35719 4.24353 2.89781 3.06643 1.72797 1.62727C1.32797 2.31727 1.09797 3.11727 1.09797 3.96927C1.09753 4.73627 1.28641 5.49151 1.64785 6.168C2.0093 6.84449 2.53213 7.42131 3.16997 7.84727C2.43025 7.82373 1.70685 7.62385 1.05997 7.26427V7.32427C1.0599 8.40001 1.43201 9.44265 2.11316 10.2753C2.79431 11.1079 3.74254 11.6792 4.79697 11.8923C4.11076 12.078 3.39131 12.1053 2.69297 11.9723C2.99047 12.8979 3.56997 13.7073 4.35034 14.2872C5.13071 14.8671 6.07289 15.1884 7.04497 15.2063C5.39481 16.5017 3.35686 17.2044 1.25897 17.2013C0.887354 17.2014 0.516049 17.1797 0.146973 17.1363C2.27645 18.5054 4.75531 19.2321 7.28697 19.2293C15.857 19.2293 20.542 12.1313 20.542 5.97527C20.542 5.77527 20.537 5.57327 20.528 5.37327C21.4393 4.71424 22.2259 3.89817 22.851 2.96327L22.853 2.96027Z" fill="#1D1D1D"/>
</svg>
