<?xml version="1.0" encoding="utf-8"?>
<!-- Generator: Adobe Illustrator 26.0.1, SVG Export Plug-In . SVG Version: 6.00 Build 0)  -->
<svg version="1.1" id="Livello_1" width="68" xmlns="http://www.w3.org/2000/svg" xmlns:xlink="http://www.w3.org/1999/xlink" x="0px" y="0px"
	 viewBox="0 0 86.8 36.3" style="enable-background:new 0 0 86.8 36.3;" xml:space="preserve">
<style type="text/css">
	.st0{fill:none;stroke:#D0D0D0;stroke-dasharray:4,4;}
	.st1{fill:none;stroke:#525252;stroke-width:1.5;}
	.st2{fill:#161616;}
</style>
<line class="st0" x1="10.4" y1="18.2" x2="78.4" y2="18.2"/>
<circle class="st1" cx="8" cy="18.2" r="3.2"/>
<circle class="st1" cx="80.8" cy="18.2" r="3.2"/>
<path class="st2" d="M40.8,24.5l3.1-5.3h3.7c0.6,0,1-0.4,1-1c0-0.6-0.4-1-1-1h-3.7l-3.1-5.3c-0.1-0.2-0.4-0.3-0.6-0.3
	c-0.5,0-0.8,0.4-0.7,0.9l1.4,4.8h-3.7l-0.9-1.5c-0.1-0.1-0.2-0.2-0.3-0.2h-0.3h-0.1c-0.2,0-0.4,0.2-0.3,0.4l0.5,1.9l0.1,0.3
	l-0.1,0.3l-0.1,0.3L35.5,20l-0.1,0.4c-0.1,0.2,0.1,0.4,0.3,0.4h0.2h0.1c0.1,0,0.2-0.1,0.3-0.2l0.9-1.5h3.7L39.5,24
	c-0.1,0.4,0.2,0.9,0.7,0.9C40.4,24.9,40.7,24.7,40.8,24.5z"/>
</svg>
