<svg width="18" height="18" viewBox="0 0 18 18" fill="none" xmlns="http://www.w3.org/2000/svg">
<path d="M12.4996 10.9996H11.7096L11.4296 10.7296C12.6296 9.32965 13.2496 7.41965 12.9096 5.38965C12.4396 2.60965 10.1196 0.389649 7.31965 0.049649C3.08965 -0.470351 -0.470351 3.08965 0.049649 7.31965C0.389649 10.1196 2.60965 12.4396 5.38965 12.9096C7.41965 13.2496 9.32965 12.6296 10.7296 11.4296L10.9996 11.7096V12.4996L15.2496 16.7496C15.6596 17.1596 16.3296 17.1596 16.7396 16.7496C17.1496 16.3396 17.1496 15.6696 16.7396 15.2596L12.4996 10.9996ZM6.49965 10.9996C4.00965 10.9996 1.99965 8.98965 1.99965 6.49965C1.99965 4.00965 4.00965 1.99965 6.49965 1.99965C8.98965 1.99965 10.9996 4.00965 10.9996 6.49965C10.9996 8.98965 8.98965 10.9996 6.49965 10.9996Z" fill="#161616"/>
</svg>
