<svg width="14" height="14" viewBox="0 0 14 14" fill="none" xmlns="http://www.w3.org/2000/svg">
<path d="M6.56669 1.53594C6.75336 1.0436 7.45977 1.0436 7.64702 1.53594L8.85452 4.88077C8.89665 4.98973 8.97083 5.08335 9.06727 5.14928C9.16371 5.2152 9.27787 5.25033 9.39469 5.25002H12.3621C12.9104 5.25002 13.1496 5.93252 12.7185 6.26677L10.6069 8.16669C10.5123 8.2394 10.4431 8.34021 10.4094 8.45465C10.3756 8.56909 10.379 8.69128 10.419 8.80369L11.1902 12.0721C11.378 12.5971 10.7702 13.048 10.3105 12.7249L7.44227 10.9049C7.34405 10.8358 7.22691 10.7988 7.10686 10.7988C6.9868 10.7988 6.86966 10.8358 6.77144 10.9049L3.90319 12.7249C3.44411 13.048 2.83569 12.5965 3.02352 12.0721L3.79469 8.80369C3.83469 8.69128 3.83806 8.56909 3.80432 8.45465C3.77057 8.34021 3.70145 8.2394 3.60686 8.16669L1.49519 6.26677C1.06352 5.93252 1.30386 5.25002 1.85102 5.25002H4.81844C4.93528 5.25041 5.04948 5.21531 5.14593 5.14938C5.24239 5.08344 5.31655 4.98978 5.35861 4.88077L6.56611 1.53594H6.56669Z" fill="#FFD057" stroke="#FFD057" stroke-linecap="round" stroke-linejoin="round"/>
</svg>
