<svg width="299" height="168" viewBox="0 0 299 168" fill="none" xmlns="http://www.w3.org/2000/svg">
<g filter="url(#filter0_d_2_9389)">
<path fill-rule="evenodd" clip-rule="evenodd" d="M9 15C9 10.5817 12.5817 7 17 7H282C286.418 7 290 10.5817 290 15V74C285.582 74 282 77.5817 282 82C282 86.4183 285.582 90 290 90V149C290 153.418 286.418 157 282 157H17C12.5817 157 9 153.418 9  149V90C13.4183 90 17 86.4183 17 82C17 77.5817 13.4183 74 9 74V15Z" fill="#F4F4F4"/>
<path d="M290 74V74.5H290.5V74H290ZM290 90H290.5V89.5H290V90ZM9 90V89.5H8.5V90H9ZM9 74H8.5V74.5H9V74ZM17 6.5C12.3056 6.5 8.5 10.3056 8.5 15H9.5C9.5 10.8579 12.8579 7.5 17 7.5V6.5ZM282 6.5H17V7.5H282V6.5ZM290.5 15C290.5 10.3056 286.694 6.5 282 6.5V7.5C286.142 7.5 289.5 10.8579 289.5 15H290.5ZM290.5 74V15H289.5V74H290.5ZM282.5 82C282.5 77.8579 285.858 74.5 290 74.5V73.5C285.306 73.5 281.5 77.3056 281.5 82H282.5ZM290 89.5C285.858 89.5 282.5 86.1421 282.5 82H281.5C281.5 86.6944 285.306 90.5 290 90.5V89.5ZM290.5 149V90H289.5V149H290.5ZM282 157.5C286.694 157.5 290.5 153.694 290.5 149H289.5C289.5 153.142 286.142 156.5 282 156.5V157.5ZM17 157.5H282V156.5H17V157.5ZM8.5 149C8.5 153.694 12.3056 157.5 17 157.5V156.5C12.8579 156.5 9.5 153.142 9.5 149H8.5ZM8.5 90V149H9.5V90H8.5ZM16.5 82C16.5 86.1421 13.1421 89.5 9 89.5V90.5C13.6944 90.5 17.5 86.6944 17.5 82H16.5ZM9 74.5C13.1421 74.5 16.5 77.8579 16.5 82H17.5C17.5 77.3056 13.6944 73.5 9 73.5V74.5ZM8.5 15V74H9.5V15H8.5Z" fill="#D0D0D0"/>
</g>
<line class="st2" x1="18" y1="82" x2="281" y2="82"/>
<defs>
<filter id="filter0_d_2_9389" x="0.5" y="0.5" width="298" height="167" filterUnits="userSpaceOnUse" color-interpolation-filters="sRGB">
<feFlood flood-opacity="0" result="BackgroundImageFix"/>

<feColorMatrix in="SourceAlpha" type="matrix" values="0 0 0 0 0 0 0 0 0 0 0 0 0 0 0 0 0 0 127 0" result="hardAlpha"/>
<feOffset dy="2"/>
<feGaussianBlur stdDeviation="4"/>
<feColorMatrix type="matrix" values="0 0 0 0 0 0 0 0 0 0 0 0 0 0 0 0 0 0 0.25 0"/>
<feBlend mode="normal" in2="BackgroundImageFix" result="effect1_dropShadow_2_9389"/>
<feBlend mode="normal" in="SourceGraphic" in2="effect1_dropShadow_2_9389" result="shape"/>
</filter>
</defs>

</svg>
