<svg width="283" height="152" viewBox="0 0 283 152" fill="none" xmlns="http://www.w3.org/2000/svg">
<path fill-rule="evenodd" clip-rule="evenodd" d="M1 9C1 4.58172 4.58172 1 9 1H274C278.418 1 282 4.58172 282 9V68C277.582 68 274 71.5817 274 76C274 80.4183 277.582 84 282 84V143C282 147.418 278.418 151 274 151H9C4.58172 151 1 147.418 1 143V84C5.41828 84 9 80.4183 9 76C9 71.5817 5.41828 68 1 68V9Z" fill="#F4F4F4"/>
<path d="M282 68V68.5H282.5V68H282ZM282 84H282.5V83.5H282V84ZM1 84V83.5H0.5V84H1ZM1 68H0.5V68.5H1V68ZM9 0.5C4.30558 0.5 0.5 4.30558 0.5 9H1.5C1.5 4.85787 4.85786 1.5 9 1.5V0.5ZM274 0.5H9V1.5H274V0.5ZM282.5 9C282.5 4.30558 278.694 0.5 274 0.5V1.5C278.142 1.5 281.5 4.85786 281.5 9H282.5ZM282.5 68V9H281.5V68H282.5ZM274.5 76C274.5 71.8579 277.858 68.5 282 68.5V67.5C277.306 67.5 273.5 71.3056 273.5 76H274.5ZM282 83.5C277.858 83.5 274.5 80.1421 274.5 76H273.5C273.5 80.6944 277.306 84.5 282 84.5V83.5ZM282.5 143V84H281.5V143H282.5ZM274 151.5C278.694 151.5 282.5 147.694 282.5 143H281.5C281.5 147.142 278.142 150.5 274 150.5V151.5ZM9 151.5H274V150.5H9V151.5ZM0.5 143C0.5 147.694 4.30558 151.5 9 151.5V150.5C4.85786 150.5 1.5 147.142 1.5 143H0.5ZM0.5 84V143H1.5V84H0.5ZM8.5 76C8.5 80.1421 5.14214 83.5 1 83.5V84.5C5.69442 84.5 9.5 80.6944 9.5 76H8.5ZM1 68.5C5.14214 68.5 8.5 71.8579 8.5 76H9.5C9.5 71.3056 5.69442 67.5 1 67.5V68.5ZM0.5 9V68H1.5V9H0.5Z" fill="#D0D0D0"/>
</svg>
