<?xml version="1.0"?>
<svg xmlns="http://www.w3.org/2000/svg" xmlns:xlink="http://www.w3.org/1999/xlink" xmlns:svgjs="http://svgjs.com/svgjs" version="1.1" width="50" height="50" x="0" y="0" viewBox="0 0 963 963" style="enable-background:new 0 0 512 512" xml:space="preserve" class=""><g>
<g xmlns="http://www.w3.org/2000/svg">
	<path d="M481.5,963C747.4,963,963,747.4,963,481.5C963,215.6,747.4,0,481.5,0C215.6,0,0,215.6,0,481.5C0,747.4,215.6,963,481.5,963   z M543.3,271.4l233.2,213.401c19.4,17.799,29.2,42.1,29.2,66.398c0,21.701-7.8,43.5-23.601,60.701   C748.5,648.6,691.6,651.1,654.9,617.5L482.6,459.8L305.3,622.4c-36.6,33.6-93.6,31.1-127.2-5.5s-31.1-93.6,5.5-127.201L421.7,271.4   C456.2,239.9,508.9,239.9,543.3,271.4z" fill="#F03A76" data-original="#000000" style="" class=""/>
</g>
<g xmlns="http://www.w3.org/2000/svg">
</g>
<g xmlns="http://www.w3.org/2000/svg">
</g>
<g xmlns="http://www.w3.org/2000/svg">
</g>
<g xmlns="http://www.w3.org/2000/svg">
</g>
<g xmlns="http://www.w3.org/2000/svg">
</g>
<g xmlns="http://www.w3.org/2000/svg">
</g>
<g xmlns="http://www.w3.org/2000/svg">
</g>
<g xmlns="http://www.w3.org/2000/svg">
</g>
<g xmlns="http://www.w3.org/2000/svg">
</g>
<g xmlns="http://www.w3.org/2000/svg">
</g>
<g xmlns="http://www.w3.org/2000/svg">
</g>
<g xmlns="http://www.w3.org/2000/svg">
</g>
<g xmlns="http://www.w3.org/2000/svg">
</g>
<g xmlns="http://www.w3.org/2000/svg">
</g>
<g xmlns="http://www.w3.org/2000/svg">
</g>
</g></svg>
