<svg width="20" height="21" viewBox="0 0 20 21" fill="none" xmlns="http://www.w3.org/2000/svg">
<path d="M3.02503 19.775C2.99077 19.9217 2.99015 20.0742 3.02322 20.2212C3.0563 20.3681 3.12221 20.5057 3.21601 20.6235C3.30981 20.7414 3.42907 20.8365 3.56485 20.9017C3.70063 20.9669 3.8494 21.0005 4.00003 21C4.19756 21.0001 4.39068 20.9416 4.55503 20.832L10 17.202L15.445 20.832C15.6154 20.9451 15.8162 21.0033 16.0207 20.9988C16.2251 20.9944 16.4232 20.9274 16.5884 20.8069C16.7536 20.6865 16.878 20.5183 16.9448 20.3251C17.0116 20.1318 17.0176 19.9228 16.962 19.726L15.133 13.326L19.669 9.24401C19.8143 9.1132 19.9181 8.94268 19.9674 8.75353C20.0168 8.56437 20.0097 8.3649 19.9469 8.17976C19.8841 7.99462 19.7685 7.83194 19.6142 7.71184C19.46 7.59174 19.2739 7.51949 19.079 7.50401L13.378 7.05001L10.911 1.58901C10.8325 1.41313 10.7047 1.26374 10.5431 1.15887C10.3815 1.05401 10.193 0.998153 10.0004 0.998047C9.80771 0.997941 9.61916 1.05359 9.45745 1.15828C9.29574 1.26296 9.16779 1.41221 9.08903 1.58801L6.62203 7.05001L0.921026 7.50301C0.729482 7.51819 0.546364 7.58822 0.393581 7.70475C0.240798 7.82127 0.124819 7.97934 0.0595194 8.16004C-0.00578038 8.34075 -0.0176359 8.53645 0.0253712 8.72372C0.0683784 8.91099 0.164427 9.0819 0.302026 9.21601L4.51603 13.323L3.02503 19.775ZM10 4.42901L12.042 8.95001L12.63 8.99701H12.631L16.603 9.31201L13.332 12.256L13.331 12.258L12.868 12.674L13.039 13.271V13.274L14.292 17.659L10 14.798V4.42901Z" fill="#FFCB45"/>
</svg>
